<svg width="77" height="76" viewBox="0 0 77 76" fill="none" xmlns="http://www.w3.org/2000/svg">
<path d="M30.524 29.9827C33.2034 29.9827 35.3756 27.8388 35.3756 25.1941C35.3756 22.5494 33.2034 20.4055 30.524 20.4055C27.8445 20.4055 25.6724 22.5494 25.6724 25.1941C25.6724 27.8388 27.8445 29.9827 30.524 29.9827Z" fill="black"/>
<path d="M38.5 42.9132C35.8211 42.9132 33.6487 45.0573 33.6487 47.7021C33.6487 50.348 35.8211 52.4921 38.5 52.4921C41.1799 52.4921 43.3523 50.348 43.3523 47.7021C43.3523 45.0573 41.1799 42.9132 38.5 42.9132Z" fill="black"/>
<path d="M45.8076 36.517C48.4871 36.517 50.6592 34.3731 50.6592 31.7284C50.6592 29.0837 48.4871 26.9398 45.8076 26.9398C43.1281 26.9398 40.956 29.0837 40.956 31.7284C40.956 34.3731 43.1281 36.517 45.8076 36.517Z" fill="black"/>
<path d="M66.9768 5.6105C57.8724 1.88754 48.2814 0 38.4702 0C28.698 0 19.1269 1.88687 10.0228 5.60779C9.39247 5.86574 8.89174 6.3603 8.6304 6.98249C8.3694 7.60467 8.3694 8.30404 8.63074 8.92622L12.7436 18.7201C12.7439 18.7214 12.7453 18.7228 12.746 18.7241L36.1226 74.4344C36.5231 75.3883 37.466 76 38.4979 76C38.5727 76 38.6478 75.9966 38.7229 75.9902C39.7004 75.9062 40.5307 75.2834 40.8874 74.4053L64.2581 18.7234C64.2588 18.7221 64.2595 18.7214 64.2602 18.7201L68.3689 8.92758C68.9122 7.63175 68.289 6.1467 66.9768 5.6105ZM38.4702 5.07768C46.747 5.07768 54.8564 6.5211 62.6139 9.37272L60.4718 14.4775C53.4005 11.9055 46.0134 10.6032 38.4746 10.6032C30.965 10.6032 23.5961 11.9058 16.531 14.4768L14.3861 9.37001C22.1398 6.52042 30.2294 5.07768 38.4702 5.07768ZM38.4993 66.8277L18.5027 19.1743C24.9388 16.8569 31.6441 15.6809 38.4743 15.6809C45.3336 15.6809 52.0574 16.8579 58.4997 19.1757L38.4993 66.8277Z" fill="black"/>
</svg>
