<svg width="77" height="76" viewBox="0 0 77 76" fill="none" xmlns="http://www.w3.org/2000/svg">
<path d="M30.3845 27.7086C30.3845 29.319 31.0204 30.8351 32.1767 31.9751C32.4356 32.2306 32.7754 32.359 33.1153 32.359C33.4552 32.359 33.795 32.2306 34.0539 31.9751C34.573 31.4627 34.573 30.6346 34.0539 30.1222C33.4007 29.4775 33.0396 28.6206 33.0396 27.7086C33.0396 26.7966 33.3994 25.9396 34.0539 25.2949C36.4369 22.9428 36.4369 19.114 34.0539 16.7619C33.5348 16.2496 32.6958 16.2496 32.1767 16.7619C31.6576 17.2743 31.6576 18.1024 32.1767 18.6148C33.5242 19.9461 33.5242 22.1108 32.1767 23.4421C31.0204 24.5834 30.3845 26.0982 30.3845 27.7086Z" fill="black"/>
<path d="M15.931 27.7086C15.931 29.319 16.567 30.8351 17.7233 31.9751C17.9822 32.2306 18.322 32.359 18.6619 32.359C19.0017 32.359 19.3416 32.2306 19.6005 31.9751C20.1196 31.4627 20.1196 30.6346 19.6005 30.1222C18.946 29.4775 18.5862 28.6206 18.5862 27.7086C18.5862 26.7966 18.946 25.9396 19.6005 25.2949C21.9835 22.9428 21.9835 19.114 19.6005 16.7619C19.0814 16.2496 18.2424 16.2496 17.7233 16.7619C17.2042 17.2743 17.2042 18.1024 17.7233 18.6148C19.0708 19.9461 19.0708 22.1108 17.7233 23.4421C16.567 24.5834 15.931 26.0982 15.931 27.7086Z" fill="black"/>
<path d="M23.7465 23.7775C23.7465 25.3879 24.3825 26.904 25.5388 28.044C25.7977 28.2995 26.1375 28.4279 26.4774 28.4279C26.8172 28.4279 27.1571 28.2995 27.416 28.044C27.9351 27.5317 27.9351 26.7035 27.416 26.1912C26.7628 25.5465 26.4017 24.6895 26.4017 23.7775C26.4017 22.8655 26.7615 22.0086 27.416 21.3639C29.799 19.0118 29.799 15.183 27.416 12.8309C26.8969 12.3186 26.0579 12.3186 25.5388 12.8309C25.0197 13.3433 25.0197 14.1714 25.5388 14.6837C26.8863 16.0151 26.8863 18.1797 25.5388 19.5111C24.3825 20.6524 23.7465 22.1671 23.7465 23.7775Z" fill="black"/>
<path d="M18.5862 50.4482C15.6084 50.4482 13.2759 52.174 13.2759 54.3793C13.2759 56.5846 15.6084 58.3103 18.5862 58.3103C21.564 58.3103 23.8966 56.5846 23.8966 54.3793C23.8966 52.174 21.564 50.4482 18.5862 50.4482ZM18.5862 55.6896C16.9652 55.6896 15.931 54.9139 15.931 54.3793C15.931 53.8447 16.9652 53.0689 18.5862 53.0689C20.2072 53.0689 21.2414 53.8447 21.2414 54.3793C21.2414 54.9139 20.2072 55.6896 18.5862 55.6896Z" fill="black"/>
<path d="M22.569 39.9656C19.5912 39.9656 17.2586 41.6913 17.2586 43.8966C17.2586 46.1019 19.5912 47.8276 22.569 47.8276C25.5467 47.8276 27.8793 46.1019 27.8793 43.8966C27.8793 41.6913 25.5467 39.9656 22.569 39.9656ZM22.569 45.207C20.948 45.207 19.9138 44.4312 19.9138 43.8966C19.9138 43.362 20.948 42.5863 22.569 42.5863C24.1899 42.5863 25.2241 43.362 25.2241 43.8966C25.2241 44.4312 24.1899 45.207 22.569 45.207Z" fill="black"/>
<path d="M35.8448 45.2069C38.8226 45.2069 41.1552 43.4812 41.1552 41.2759C41.1552 39.0706 38.8226 37.3448 35.8448 37.3448C32.8671 37.3448 30.5345 39.0706 30.5345 41.2759C30.5345 43.4812 32.8671 45.2069 35.8448 45.2069ZM35.8448 39.9655C37.4658 39.9655 38.5 40.7413 38.5 41.2759C38.5 41.8105 37.4658 42.5862 35.8448 42.5862C34.2238 42.5862 33.1897 41.8105 33.1897 41.2759C33.1897 40.7413 34.2238 39.9655 35.8448 39.9655Z" fill="black"/>
<path d="M49.1207 46.5172C52.0985 46.5172 54.431 44.7915 54.431 42.5862C54.431 40.3809 52.0985 38.6552 49.1207 38.6552C46.1429 38.6552 43.8103 40.3809 43.8103 42.5862C43.8103 44.7915 46.1429 46.5172 49.1207 46.5172ZM49.1207 41.2758C50.7417 41.2758 51.7759 42.0516 51.7759 42.5862C51.7759 43.1208 50.7417 43.8965 49.1207 43.8965C47.4997 43.8965 46.4655 43.1208 46.4655 42.5862C46.4655 42.0516 47.4997 41.2758 49.1207 41.2758Z" fill="black"/>
<path d="M66.3793 47.8276C66.3793 45.6223 64.0467 43.8966 61.069 43.8966C58.0912 43.8966 55.7586 45.6223 55.7586 47.8276C55.7586 50.033 58.0912 51.7587 61.069 51.7587C64.0467 51.7587 66.3793 50.033 66.3793 47.8276ZM61.069 49.138C59.448 49.138 58.4138 48.3623 58.4138 47.8276C58.4138 47.293 59.448 46.5173 61.069 46.5173C62.69 46.5173 63.7241 47.293 63.7241 47.8276C63.7241 48.3623 62.69 49.138 61.069 49.138Z" fill="black"/>
<path d="M53.1035 51.7587C50.1257 51.7587 47.7931 53.4844 47.7931 55.6897C47.7931 57.895 50.1257 59.6207 53.1035 59.6207C56.0812 59.6207 58.4138 57.895 58.4138 55.6897C58.4138 53.4844 56.0812 51.7587 53.1035 51.7587ZM53.1035 57C51.4825 57 50.4483 56.2243 50.4483 55.6897C50.4483 55.1551 51.4825 54.3794 53.1035 54.3794C54.7244 54.3794 55.7586 55.1551 55.7586 55.6897C55.7586 56.2243 54.7244 57 53.1035 57Z" fill="black"/>
<path d="M38.5 54.3793C35.5222 54.3793 33.1897 56.105 33.1897 58.3103C33.1897 60.5156 35.5222 62.2413 38.5 62.2413C41.4778 62.2413 43.8103 60.5156 43.8103 58.3103C43.8103 56.105 41.4778 54.3793 38.5 54.3793ZM38.5 59.6207C36.879 59.6207 35.8448 58.8449 35.8448 58.3103C35.8448 57.7757 36.879 57 38.5 57C40.121 57 41.1552 57.7757 41.1552 58.3103C41.1552 58.8449 40.121 59.6207 38.5 59.6207Z" fill="black"/>
<path d="M32.1356 50.7995C31.5992 50.6855 31.0708 50.9122 30.7748 51.3302C29.9968 51.3446 29.2866 51.7927 28.9454 52.4807C28.0161 52.5174 27.1929 53.1712 26.9925 54.1094C26.8411 54.8183 27.3005 55.5128 28.0187 55.6622C28.1103 55.6818 28.2019 55.6897 28.2935 55.6897C28.7303 55.6897 29.1352 55.4761 29.3795 55.1302C30.1574 55.1158 30.8677 54.6676 31.2089 53.9797C32.1382 53.943 32.9613 53.2891 33.1618 52.3509C33.3118 51.642 32.8524 50.9476 32.1356 50.7995Z" fill="black"/>
<path d="M44.9653 51.1677C44.579 50.502 43.8409 50.1482 43.0656 50.1351C42.8744 49.8206 42.6009 49.5612 42.2637 49.383C41.7725 49.1222 41.2083 49.0646 40.6772 49.2271C39.9749 49.4367 39.578 50.1679 39.7917 50.8597C39.9497 51.3786 40.4038 51.7272 40.9162 51.7835C41.1074 52.115 41.3902 52.3889 41.7393 52.5737C42.0752 52.7519 42.4496 52.8213 42.816 52.8174C43.0072 53.1319 43.2806 53.3913 43.6165 53.5695C43.9232 53.732 44.2591 53.8159 44.5976 53.8159C44.8007 53.8159 45.0038 53.787 45.203 53.7268C45.9053 53.5171 46.3022 52.7859 46.0885 52.0941C45.9305 51.5726 45.4765 51.224 44.9653 51.1677Z" fill="black"/>
<path d="M35.9909 47.2366C35.6045 46.5709 34.8783 46.2053 34.0911 46.204C33.8999 45.8895 33.6264 45.6301 33.2892 45.4519C32.798 45.1924 32.2338 45.1348 31.7028 45.296C31.0005 45.5056 30.6035 46.2368 30.8173 46.9286C30.9752 47.4475 31.4293 47.7961 31.9417 47.8524C32.1329 48.184 32.4157 48.4578 32.7648 48.6426C33.1007 48.8208 33.4764 48.8902 33.8415 48.8863C34.0327 49.2008 34.3062 49.4602 34.642 49.6384C34.9487 49.8009 35.2846 49.8848 35.6231 49.8848C35.8262 49.8848 36.0294 49.8559 36.2285 49.7957C36.9308 49.586 37.3277 48.8548 37.114 48.163C36.9573 47.6415 36.5033 47.2929 35.9909 47.2366Z" fill="black"/>
<path d="M76.7955 61.7081C76.8128 61.4997 76.8102 61.2901 76.7597 61.0804L66.4656 34.9102L72.9787 8.83043C72.9894 8.78588 72.9748 8.74133 72.9814 8.69678C72.9894 8.6365 73.0172 8.58147 73.0172 8.51726V4.58622C73.0172 3.8616 72.4238 3.27588 71.6897 3.27588H5.31034C4.57752 3.27588 3.98276 3.8616 3.98276 4.58622V8.51726C3.98276 9.24188 4.57752 9.8276 5.31034 9.8276H5.50816L11.08 34.0244C10.849 34.2551 10.6552 34.525 10.557 34.8526L0.294724 60.9075L0.240293 61.0817C0.181879 61.3268 0.181879 61.5718 0.215069 61.8129C0.0902759 62.0422 0 62.2938 0 62.5729V70.642C0 71.7899 0.946569 72.7242 2.10953 72.7242H74.8905C76.0534 72.7242 77 71.7899 77 70.642V62.4091C77 62.151 76.915 61.9204 76.7955 61.7081ZM45.7075 60.931H45.6663C44.7131 60.931 43.8953 61.5875 43.6749 62.5297C43.6351 62.7 43.5687 62.8586 43.5077 63.0211C43.4731 63.1141 43.4506 63.2124 43.4094 63.3028C43.351 63.4299 43.2713 63.5452 43.201 63.6657C43.1359 63.7771 43.0802 63.8951 43.0045 64.0012C42.9501 64.0772 42.881 64.1427 42.8226 64.2148C42.7098 64.3524 42.6022 64.4952 42.4735 64.621C42.4416 64.6511 42.4044 64.676 42.3712 64.7062C41.5973 65.4229 40.5684 65.9274 39.4187 66.103C39.12 66.1488 38.812 66.1724 38.5 66.1724C38.188 66.1724 37.88 66.1488 37.5813 66.103C36.4183 65.9261 35.3762 65.4124 34.6009 64.6826C34.5783 64.6603 34.5504 64.6433 34.5279 64.621C34.3924 64.4873 34.2769 64.3393 34.1588 64.1925C34.1057 64.127 34.0433 64.068 33.9955 63.9999C33.9105 63.8806 33.8481 63.7509 33.7764 63.6251C33.7154 63.5177 33.6424 63.4155 33.5906 63.3028C33.5388 63.1914 33.5096 63.0695 33.4684 62.9542C33.418 62.8127 33.3569 62.6751 33.3237 62.5284C33.1047 61.5875 32.2869 60.931 31.3337 60.931H31.2925H14.3021C10.3286 58.3942 7.96552 53.6613 7.96552 50.4483C7.96552 42.6347 21.949 36.0345 38.5 36.0345C55.051 36.0345 69.0345 42.6347 69.0345 50.4483C69.0345 53.6613 66.6714 58.3942 62.6979 60.931H45.7075ZM12.94 36.0345H20.5882C16.8272 37.2505 13.5998 38.8452 11.0933 40.7242L12.94 36.0345ZM65.9067 40.7229C63.4002 38.8439 60.1728 37.2505 56.4118 36.0345H64.06L65.9067 40.7229ZM71.1015 53.9128L73.8656 60.931H66.8267C68.9137 58.8345 70.3621 56.2951 71.1015 53.9128ZM6.63793 5.89657H70.3621V7.20691H43.7174C43.3019 7.20691 42.9102 7.39822 42.658 7.72581C42.4071 8.0534 42.3261 8.47795 42.4389 8.87367C42.4682 8.97588 42.4828 9.07284 42.4828 9.17243C42.4828 10.1028 41.1193 11.1379 39.1638 11.1379C37.2083 11.1379 35.8448 10.1028 35.8448 9.17243C35.8448 9.07284 35.8594 8.97588 35.8886 8.87367C36.0015 8.47795 35.9205 8.0534 35.6696 7.72581C35.4187 7.39822 35.027 7.20691 34.6102 7.20691H6.63793V5.89657ZM33.2467 9.8276C33.649 12.0788 36.1037 13.7586 39.1638 13.7586C42.2239 13.7586 44.6773 12.0788 45.0808 9.8276H69.9957L64.1051 33.4138H13.6635L8.23103 9.8276H33.2467ZM5.89847 53.9115C6.63793 56.2951 8.08633 58.8345 10.1746 60.931H3.13443L5.89847 53.9115ZM74.3448 70.1035H2.65517V63.5517H13.552H30.8531C31.7944 66.6573 34.8783 68.7931 38.5013 68.7931C42.1243 68.7931 45.2083 66.6573 46.1496 63.5517H63.4507H74.3448V70.1035Z" fill="black"/>
</svg>
