<svg width="77" height="76" viewBox="0 0 77 76" fill="none" xmlns="http://www.w3.org/2000/svg">
<path d="M30.4195 66.6737C28.9224 66.6737 27.4589 66.2355 26.2142 65.4145C24.9694 64.5935 23.9992 63.4266 23.4264 62.0614C22.8535 60.6962 22.7037 59.194 22.9959 57.7448C23.2881 56.2955 24.0091 54.9643 25.0678 53.9196C26.1266 52.8748 27.4754 52.1634 28.9438 51.8753C30.4121 51.5872 31.9341 51.7354 33.3171 52.301C34.7002 52.8667 35.8822 53.8245 36.7138 55.0533C37.5453 56.2821 37.989 57.7266 37.9887 59.2043C37.9863 61.1848 37.188 63.0835 35.769 64.4838C34.35 65.8842 32.4261 66.6717 30.4195 66.6737ZM30.4195 56.1865C29.8148 56.1865 29.2237 56.3635 28.7209 56.6951C28.2181 57.0267 27.8262 57.498 27.5948 58.0494C27.3634 58.6009 27.3028 59.2076 27.4208 59.793C27.5388 60.3784 27.83 60.9161 28.2576 61.3381C28.6852 61.7602 29.23 62.0476 29.823 62.164C30.4161 62.2805 31.0309 62.2207 31.5895 61.9923C32.1482 61.7639 32.6257 61.3771 32.9617 60.8808C33.2976 60.3846 33.477 59.8011 33.477 59.2043C33.4762 58.4042 33.1538 57.6371 32.5806 57.0713C32.0074 56.5055 31.2302 56.1873 30.4195 56.1865Z" fill="black"/>
<path d="M56.2281 66.6737C54.7309 66.6739 53.2673 66.236 52.0223 65.4152C50.7773 64.5944 49.8069 63.4276 49.2338 62.0625C48.6608 60.6973 48.5107 59.195 48.8028 57.7457C49.0948 56.2963 49.8157 54.965 50.8743 53.9201C51.933 52.8752 53.2818 52.1636 54.7502 51.8754C56.2187 51.5872 57.7407 51.7353 59.1238 52.3009C60.507 52.8665 61.6891 53.8243 62.5207 55.0531C63.3523 56.2819 63.796 57.7266 63.7957 59.2043C63.7933 61.1846 62.9953 63.0831 61.5766 64.4833C60.1579 65.8836 58.2344 66.6713 56.2281 66.6737ZM56.2281 56.1865C55.6233 56.1863 55.032 56.363 54.529 56.6944C54.026 57.0258 53.6339 57.497 53.4023 58.0484C53.1706 58.5998 53.1099 59.2066 53.2277 59.7921C53.3455 60.3776 53.6366 60.9154 54.0641 61.3376C54.4916 61.7598 55.0364 62.0474 55.6295 62.1639C56.2226 62.2805 56.8375 62.2208 57.3962 61.9924C57.955 61.7641 58.4326 61.3773 58.7686 60.881C59.1046 60.3847 59.284 59.8012 59.284 59.2043C59.2832 58.4044 58.961 57.6375 58.3881 57.0718C57.8153 56.5061 57.0384 56.1877 56.2281 56.1865Z" fill="black"/>
<path d="M66.3418 49.1076H21.0216C20.4233 49.1076 19.8495 48.873 19.4265 48.4554C19.0034 48.0379 18.7657 47.4715 18.7657 46.881V15.0649C18.7642 14.1795 18.4069 13.3308 17.7723 12.705C17.1377 12.0792 16.2775 11.7273 15.3805 11.7266H10.6687C10.0704 11.7266 9.49663 11.492 9.07358 11.0744C8.65052 10.6569 8.41285 10.0905 8.41285 9.5C8.41285 8.90948 8.65052 8.34314 9.07358 7.92558C9.49663 7.50802 10.0704 7.27344 10.6687 7.27344H15.3805C17.4741 7.27579 19.4814 8.09775 20.9618 9.55898C22.4423 11.0202 23.2751 13.0014 23.2775 15.0679V44.6544H66.3418C66.9401 44.6544 67.5139 44.889 67.937 45.3066C68.36 45.7242 68.5977 46.2905 68.5977 46.881C68.5977 47.4715 68.36 48.0379 67.937 48.4554C67.5139 48.873 66.9401 49.1076 66.3418 49.1076Z" fill="black"/>
<path d="M62.1595 41.3086H28.6494C28.0511 41.3086 27.4773 41.0741 27.0543 40.6565C26.6312 40.2389 26.3936 39.6726 26.3936 39.0821V27.2501C26.3936 26.6596 26.6312 26.0933 27.0543 25.6757C27.4773 25.2581 28.0511 25.0236 28.6494 25.0236H62.1595C62.7577 25.0236 63.3315 25.2581 63.7546 25.6757C64.1776 26.0933 64.4153 26.6596 64.4153 27.2501V39.0821C64.4153 39.6726 64.1776 40.2389 63.7546 40.6565C63.3315 41.0741 62.7577 41.3086 62.1595 41.3086ZM30.9053 36.8555H59.9036V29.4767H30.9053V36.8555Z" fill="black"/>
<path d="M62.1595 29.4767H28.6494C28.0511 29.4767 27.4773 29.2421 27.0543 28.8246C26.6312 28.407 26.3936 27.8407 26.3936 27.2502V15.4197C26.3936 14.8292 26.6312 14.2628 27.0543 13.8453C27.4773 13.4277 28.0511 13.1931 28.6494 13.1931H62.1595C62.7577 13.1931 63.3315 13.4277 63.7546 13.8453C64.1776 14.2628 64.4153 14.8292 64.4153 15.4197V27.2502C64.4153 27.8407 64.1776 28.407 63.7546 28.8246C63.3315 29.2421 62.7577 29.4767 62.1595 29.4767ZM30.9053 25.0236H59.9036V17.6462H30.9053V25.0236Z" fill="black"/>
</svg>
